<svg xmlns="http://www.w3.org/2000/svg" width="23" height="21" viewBox="0 0 23 21">
  <metadata><?xpacket begin="﻿" id="W5M0MpCehiHzreSzNTczkc9d"?>
<x:xmpmeta xmlns:x="adobe:ns:meta/" x:xmptk="Adobe XMP Core 5.6-c138 79.159824, 2016/09/14-01:09:01        ">
   <rdf:RDF xmlns:rdf="http://www.w3.org/1999/02/22-rdf-syntax-ns#">
      <rdf:Description rdf:about=""/>
   </rdf:RDF>
</x:xmpmeta>
                                                                                                    
                                                                                                    
                                                                                                    
                                                                                                    
                                                                                                    
                                                                                                    
                                                                                                    
                                                                                                    
                                                                                                    
                                                                                                    
                                                                                                    
                                                                                                    
                                                                                                    
                                                                                                    
                                                                                                    
                                                                                                    
                                                                                                    
                                                                                                    
                                                                                                    
                                                                                                    
                           
<?xpacket end="w"?></metadata>
<defs>
    <style>
      .cls-1 {
        fill: #f5681b;
        fill-rule: evenodd;
      }
    </style>
  </defs>
  <path class="cls-1" d="M287.7,278.993c0-2.224,0-3.963,1.882-5.418l-2.635-8.243a1.994,1.994,0,0,1-1.939-2,2.06,2.06,0,0,1,2.055-2.082,2.086,2.086,0,0,1,2.085,2.082,1.587,1.587,0,0,1-.405,1.084l2.287,2.4,0.868-4.364a2.289,2.289,0,0,1,.811-4.449,2.286,2.286,0,0,1,1.389,4.164l2.346,4.307,2.374-4.307a2.367,2.367,0,1,1,2.2.285l0.81,4.392,2.316-2.424a2.253,2.253,0,0,1-.289-1.084,2.061,2.061,0,0,1,2.055-2.082,2.086,2.086,0,0,1,2.085,2.082,1.992,1.992,0,0,1-1.911,2l-2.693,8.186c1.941,1.454,1.941,3.251,1.941,5.475H287.7Zm-0.637-15a0.7,0.7,0,1,0,0-1.4A0.7,0.7,0,0,0,287.061,263.992Zm13.811,5.79-1.043-6.075h-0.058l-3.329,5.961-3.329-5.961h-0.058l-1.043,6.132-2.982-3-0.058.086,2.345,5.988a23.362,23.362,0,0,1,4.835-.427,36.478,36.478,0,0,1,5.617.485l2.172-6.075-0.058-.057Zm2.316,7.187c0-1.284-1.245-1.712-2.866-2.139a14.22,14.22,0,0,0-3.88-.314,19.083,19.083,0,0,0-4.082.342c-1.361.313-2.519,0.827-2.519,2.111h13.347ZM292.707,261.14a0.833,0.833,0,0,0,.84-0.827,0.826,0.826,0,0,0-1.651,0A0.828,0.828,0,0,0,292.707,261.14Zm7.47,0a0.816,0.816,0,0,0,.84-0.827,0.794,0.794,0,0,0-.84-0.8,0.8,0.8,0,0,0-.811.8A0.827,0.827,0,0,0,300.177,261.14Zm5.732,2.852a0.729,0.729,0,0,0,.724-0.713,0.746,0.746,0,0,0-.724-0.684,0.719,0.719,0,0,0-.694.684A0.7,0.7,0,0,0,305.909,263.992Z" transform="translate(-285 -258)"/>
</svg>
