<svg xmlns="http://www.w3.org/2000/svg" width="20" height="21" viewBox="0 0 20 21">
  <metadata><?xpacket begin="﻿" id="W5M0MpCehiHzreSzNTczkc9d"?>
<x:xmpmeta xmlns:x="adobe:ns:meta/" x:xmptk="Adobe XMP Core 5.6-c138 79.159824, 2016/09/14-01:09:01        ">
   <rdf:RDF xmlns:rdf="http://www.w3.org/1999/02/22-rdf-syntax-ns#">
      <rdf:Description rdf:about=""/>
   </rdf:RDF>
</x:xmpmeta>
                                                                                                    
                                                                                                    
                                                                                                    
                                                                                                    
                                                                                                    
                                                                                                    
                                                                                                    
                                                                                                    
                                                                                                    
                                                                                                    
                                                                                                    
                                                                                                    
                                                                                                    
                                                                                                    
                                                                                                    
                                                                                                    
                                                                                                    
                                                                                                    
                                                                                                    
                                                                                                    
                           
<?xpacket end="w"?></metadata>
<defs>
    <style>
      .cls-1 {
        fill: #f5681b;
        fill-rule: evenodd;
      }
    </style>
  </defs>
  <path class="cls-1" d="M297.105,302.4a7.483,7.483,0,0,1,1.137-3.867,5.057,5.057,0,0,1,4.7-2.486,3.256,3.256,0,0,1,3.071,3.315,5.381,5.381,0,0,1-2.3,4.266c0-2.026-.829-3.284-3.07-3.284a2.279,2.279,0,0,0-2.426,2.056,1.225,1.225,0,0,1,1.32,1.2,2.542,2.542,0,0,0-1.32-.46,3.253,3.253,0,0,0,.829,2.209,1.088,1.088,0,0,1,.86-1.1,1.317,1.317,0,0,1,1.136,1.35,1.189,1.189,0,0,1-1.167,1.32c-1.229,0-2.518-1.566-2.641-3.775h-0.614a5.135,5.135,0,0,0,.245,1.841,2.9,2.9,0,0,1,.246.952A14.752,14.752,0,0,1,296,309a14.711,14.711,0,0,1-1.106-3.069,2.9,2.9,0,0,1,.246-0.952,5.133,5.133,0,0,0,.246-1.841h-0.615c-0.122,2.209-1.412,3.775-2.641,3.775a1.189,1.189,0,0,1-1.166-1.32,1.316,1.316,0,0,1,1.136-1.35,1.089,1.089,0,0,1,.86,1.1,3.258,3.258,0,0,0,.829-2.209,2.539,2.539,0,0,0-1.32.46,1.225,1.225,0,0,1,1.32-1.2,2.279,2.279,0,0,0-2.426-2.056c-2.242,0-3.071,1.258-3.071,3.284a5.38,5.38,0,0,1-2.3-4.266,3.256,3.256,0,0,1,3.071-3.315,5.057,5.057,0,0,1,4.7,2.486,7.48,7.48,0,0,1,1.136,3.867h0.492a11.166,11.166,0,0,0-1.6-5,5.556,5.556,0,0,1-.8-2.333,6.641,6.641,0,0,1,1.044-3.038c0.583-1.074,1.412-2.67,1.965-4.021a44.36,44.36,0,0,0,1.965,4.021,6.653,6.653,0,0,1,1.044,3.038,5.57,5.57,0,0,1-.8,2.333,11.154,11.154,0,0,0-1.6,5h0.491Z" transform="translate(-286 -288)"/>
</svg>
