<svg xmlns="http://www.w3.org/2000/svg" width="36" height="17" viewBox="0 0 36 17">
  <metadata><?xpacket begin="﻿" id="W5M0MpCehiHzreSzNTczkc9d"?>
<x:xmpmeta xmlns:x="adobe:ns:meta/" x:xmptk="Adobe XMP Core 5.6-c138 79.159824, 2016/09/14-01:09:01        ">
   <rdf:RDF xmlns:rdf="http://www.w3.org/1999/02/22-rdf-syntax-ns#">
      <rdf:Description rdf:about=""/>
   </rdf:RDF>
</x:xmpmeta>
                                                                                                    
                                                                                                    
                                                                                                    
                                                                                                    
                                                                                                    
                                                                                                    
                                                                                                    
                                                                                                    
                                                                                                    
                                                                                                    
                                                                                                    
                                                                                                    
                                                                                                    
                                                                                                    
                                                                                                    
                                                                                                    
                                                                                                    
                                                                                                    
                                                                                                    
                                                                                                    
                           
<?xpacket end="w"?></metadata>
<defs>
    <style>
      .cls-1 {
        fill: #f5681b;
      }

      .cls-2 {
        fill: #fff;
        fill-rule: evenodd;
      }
    </style>
  </defs>
  <rect id="Rounded_Rectangle_4" data-name="Rounded Rectangle 4" class="cls-1" width="36" height="17" rx="4" ry="4"/>
  <path id="new" class="cls-2" d="M286.976,447.6V455h1.661v-5.264a1.6,1.6,0,0,1,1.5-.909,1.276,1.276,0,0,1,.994.339,1.52,1.52,0,0,1,.305,1.042V455h1.661v-4.888q-0.042-2.645-2.352-2.645a2.659,2.659,0,0,0-2.153.991l-0.048-.854h-1.565Zm12.732,7.167a3,3,0,0,0,1.186-1.029l-0.9-.854a2.249,2.249,0,0,1-1.859.923,1.833,1.833,0,0,1-1.35-.534,2.217,2.217,0,0,1-.612-1.449h4.833v-0.67a4.074,4.074,0,0,0-.824-2.727,2.9,2.9,0,0,0-2.334-.964,3.176,3.176,0,0,0-1.723.485,3.257,3.257,0,0,0-1.2,1.357,4.437,4.437,0,0,0-.427,1.979v0.2a3.608,3.608,0,0,0,.981,2.649,3.437,3.437,0,0,0,2.56,1A3.715,3.715,0,0,0,299.708,454.771Zm-0.783-5.544a2.015,2.015,0,0,1,.444,1.261v0.123H296.2a2.481,2.481,0,0,1,.537-1.333A1.545,1.545,0,0,1,298.925,449.227Zm8.333-1.623h-1.251l-1.518,5.051-1.2-5.051h-1.62L303.7,455h1.367l1.559-5.079L308.208,455h1.367l2.017-7.4h-1.62L308.8,452.71Z" transform="translate(-281 -443)"/>
</svg>
